<svg width="28" height="28" viewBox="0 0 28 28" fill="none" xmlns="http://www.w3.org/2000/svg">
<path d="M28 21.8619C28 22.7445 27.259 23.4601 26.3449 23.4601H1.65512C0.741016 23.4601 0 22.7445 0 21.8619V6.41402C0 5.53143 0.741016 4.81592 1.65512 4.81592H26.3449C27.259 4.81592 28 5.53143 28 6.41402V21.8619Z" fill="#306FC5"/>
<path opacity="0.15" d="M1.17671 21.8619V6.41402C1.17671 5.53143 1.91784 4.81592 2.83194 4.81592H1.65506C0.741016 4.81592 0 5.53138 0 6.41402V21.862C0 22.7446 0.741016 23.4601 1.65512 23.4601H2.83199C1.91789 23.4601 1.17671 22.7445 1.17671 21.8619Z" fill="#202121"/>
<path d="M4.08008 12.2767H4.91669L4.49849 11.2487L4.08008 12.2767Z" fill="#F9F9F9"/>
<path d="M8.5293 15.7277V16.205H9.93635V16.7192H8.5293V17.2701H10.0884L10.8109 16.4988L10.1264 15.7277H8.5293Z" fill="#F9F9F9"/>
<path d="M19.5189 11.2487L19.0625 12.2767H19.9372L19.5189 11.2487Z" fill="#F9F9F9"/>
<path d="M12.5981 17.5636V15.4708L11.6094 16.4989L12.5981 17.5636Z" fill="#F9F9F9"/>
<path d="M14.4611 16.0583C14.423 15.838 14.2708 15.7277 14.0425 15.7277H13.2441V16.3885H14.0808C14.3089 16.3886 14.4611 16.2785 14.4611 16.0583Z" fill="#F9F9F9"/>
<path d="M17.1214 16.3153C17.1974 16.2785 17.2356 16.1682 17.2356 16.0583C17.2737 15.9116 17.1974 15.838 17.1214 15.8013C17.0455 15.7645 16.9313 15.7645 16.8173 15.7645H16.0566V16.3521H16.8173C16.9312 16.3521 17.0454 16.3521 17.1214 16.3153Z" fill="#F9F9F9"/>
<path d="M22.5979 10.2939V10.7345L22.3699 10.2939H20.5828V10.7345L20.3546 10.2939H17.9209C17.5026 10.2939 17.1602 10.3674 16.8562 10.5143V10.2939H15.145V10.3307V10.5143C14.955 10.3675 14.7268 10.2939 14.4226 10.2939H8.30031L7.88184 11.2119L7.46364 10.2939H6.09476H5.52431V10.7345L5.33416 10.2939H5.2961H3.661L2.90035 12.0195L2.02584 13.892L2.00977 13.9288H2.02584H3.96523H3.98951L4.00329 13.892L4.23155 13.3413H4.72588L4.95403 13.9288H7.15936V13.892V13.4882L7.34962 13.9287H8.45228L8.64232 13.4882V13.892V13.9288H9.51694H13.89H13.9281V12.9741H14.0043C14.0803 12.9741 14.0803 12.9741 14.0803 13.0843V13.892H16.8182V13.6717C17.0464 13.782 17.3884 13.892 17.8448 13.892H18.9857L19.2139 13.3047H19.7461L19.9742 13.892H22.1797V13.5249V13.3414L22.5221 13.892H22.5979H22.6361H24.3093V10.2939H22.598H22.5979ZM9.7072 13.3781H9.32685H9.09874V13.158V11.3587L9.06068 11.443V11.442L8.17606 13.3781H8.14806H7.94467H7.61562L6.70305 11.3587V13.3781H5.41023L5.14407 12.8274H3.85104L3.58482 13.3781H2.91638L4.0413 10.808H4.99188L6.05659 13.2679V10.808H6.28469H7.06404L7.08198 10.8448H7.08329L7.56306 11.853L7.90759 12.6084L7.91979 12.5703L8.68027 10.8081H9.70714V13.3781H9.7072ZM12.3311 11.3587H10.848V11.836H12.293V12.35H10.848V12.8642H12.3311V13.4147H10.2016V10.8081H12.3311V11.3587ZM15.0433 12.3055C15.0443 12.3063 15.0456 12.3069 15.0468 12.3077C15.0612 12.3224 15.0735 12.3371 15.084 12.3512C15.1568 12.4434 15.2157 12.5805 15.2187 12.7816C15.2189 12.7851 15.219 12.7885 15.2193 12.792C15.2193 12.794 15.2196 12.7957 15.2196 12.7978C15.2196 12.799 15.2195 12.7999 15.2195 12.801C15.2204 12.8212 15.221 12.8418 15.221 12.8642V13.3782H14.6507V13.0844C14.6507 12.9375 14.6507 12.7172 14.5364 12.5703C14.5005 12.5356 14.4641 12.5128 14.4245 12.4965C14.3676 12.4609 14.2595 12.4603 14.0803 12.4603H13.3956V13.3782H12.7493V10.8081H14.1944C14.5364 10.8081 14.7647 10.8081 14.9549 10.9182C15.1412 11.0263 15.2538 11.2054 15.258 11.4891C15.2492 11.8798 14.9895 12.0942 14.8027 12.1665C14.8027 12.1665 14.9296 12.1912 15.0433 12.3055ZM16.3238 13.3781H15.6773V10.808H16.3238V13.3781ZM23.739 13.3781H22.9023L21.6855 11.4321V13.0476L21.6815 13.0438V13.3797H21.0391V13.3782H20.3926L20.1644 12.8275H18.8334L18.6052 13.4148H17.8828C17.5788 13.4148 17.1982 13.3414 16.9702 13.1212C16.742 12.9009 16.6281 12.6071 16.6281 12.1299C16.6281 11.7628 16.704 11.3954 16.9702 11.1018C17.1602 10.8813 17.5026 10.8081 17.9208 10.8081H18.5293V11.3587H17.9208C17.6926 11.3587 17.5788 11.3953 17.4263 11.5057C17.3125 11.6158 17.2364 11.836 17.2364 12.093C17.2364 12.3868 17.2744 12.5703 17.4263 12.7172C17.5407 12.8275 17.6927 12.8642 17.8828 12.8642H18.1489L19.0234 10.8449H19.4039H19.9742L21.039 13.3048V13.1793V12.3501V12.2768V10.845H21.9896L23.0922 12.6439V10.845H23.7389V13.3783H23.739V13.3781Z" fill="#F9F9F9"/>
<path d="M14.502 11.8785C14.5131 11.867 14.5232 11.854 14.5317 11.8392C14.5662 11.7865 14.6057 11.6917 14.5844 11.5623C14.5835 11.5504 14.5813 11.5394 14.5787 11.5288C14.578 11.5258 14.5781 11.5232 14.5772 11.5203L14.5769 11.5203C14.5579 11.4575 14.5096 11.4188 14.4615 11.3954C14.3852 11.3588 14.2712 11.3588 14.1571 11.3588H13.3965V11.9463H14.1571C14.2712 11.9463 14.3853 11.9463 14.4615 11.9095C14.4729 11.9039 14.4831 11.8963 14.4929 11.8877L14.493 11.8882C14.493 11.8882 14.4969 11.8842 14.502 11.8785Z" fill="#F9F9F9"/>
<path d="M25.9834 17.0497C25.9834 16.7928 25.9074 16.5357 25.7934 16.3521V14.7H25.7916V14.5897C25.7916 14.5897 24.1978 14.5897 23.9605 14.5897C23.7234 14.5897 23.4356 14.8099 23.4356 14.8099V14.5897H21.6865C21.4202 14.5897 21.0782 14.6632 20.9259 14.8099V14.5897H17.8078V14.7V14.8099C17.5798 14.6265 17.1612 14.5897 16.9712 14.5897H14.9177V14.7V14.8098C14.7276 14.6264 14.2711 14.5896 14.0428 14.5896H11.7616L11.2291 15.1404L10.7347 14.5896H10.5755H10.3165H7.3125V14.6999V14.9899V18.298H10.6588L11.2087 17.767L11.6853 18.298H11.7234H13.6516H13.739H13.7771H13.8149V17.9309V17.4536H14.0052C14.2711 17.4536 14.6135 17.4536 14.8797 17.3433V18.2611V18.3347H16.5909V18.2611V17.3801H16.6667C16.781 17.3801 16.781 17.3801 16.781 17.4902V18.2611V18.3347H21.9524C22.2949 18.3347 22.6369 18.2611 22.827 18.1143V18.2611V18.3347H24.4623C24.8043 18.3347 25.1468 18.298 25.375 18.1511C25.7251 17.9483 25.9457 17.5893 25.9785 17.1611C25.9801 17.1484 25.982 17.1358 25.9832 17.123L25.981 17.121C25.9824 17.0972 25.9834 17.0737 25.9834 17.0497ZM14.0052 16.8295H13.2445V16.9394V17.1598V17.3801V17.784H11.9946L11.2672 16.9762L11.2647 16.9789L11.2291 16.9394L10.3926 17.784H7.95891V15.214H10.4306L11.1059 15.9281L11.2479 16.0777L11.2671 16.0584L12.0658 15.214H14.0811C14.4722 15.214 14.9102 15.3072 15.0762 15.6915C15.0962 15.7676 15.1078 15.8521 15.1078 15.9482C15.1078 16.6825 14.5754 16.8295 14.0052 16.8295ZM17.8078 16.7927C17.8838 16.9026 17.9218 17.0497 17.9218 17.2701V17.7839H17.2755V17.4536C17.2755 17.3065 17.2755 17.0497 17.1612 16.9394C17.0854 16.8295 16.9331 16.8295 16.7051 16.8295H16.0207V17.784H15.3743V15.1772H16.8192C17.1232 15.1772 17.3893 15.1772 17.5798 15.2873C17.7698 15.3975 17.9218 15.5811 17.9218 15.8748C17.9218 16.2786 17.6558 16.4989 17.4656 16.5725C17.6558 16.6456 17.7698 16.7193 17.8078 16.7927ZM20.4317 15.7277H18.9485V16.2051H20.3935V16.7192H18.9485V17.2333H20.4317V17.7839H18.3022V15.1772H20.4317V15.7277ZM22.0287 17.784H20.8118V17.2333H22.0287C22.1425 17.2333 22.2188 17.2333 22.295 17.1598C22.3331 17.123 22.3709 17.0497 22.3709 16.9762C22.3709 16.9026 22.3331 16.8296 22.295 16.7928C22.2568 16.7561 22.1807 16.7193 22.0666 16.7193C21.4582 16.6826 20.7357 16.7193 20.7357 15.9116C20.7357 15.5445 20.9639 15.1405 21.6484 15.1405H22.9032V15.7646H21.7245C21.6104 15.7646 21.5343 15.7646 21.4581 15.8013C21.3823 15.8381 21.3823 15.9116 21.3823 15.985C21.3823 16.0952 21.4581 16.1319 21.5342 16.1684C21.6104 16.2052 21.6864 16.2052 21.7624 16.2052H22.1046C22.4469 16.2052 22.675 16.2786 22.8271 16.4255C22.9413 16.5357 23.0173 16.7193 23.0173 16.9762C23.0173 17.5268 22.6751 17.784 22.0287 17.784ZM25.2989 17.5268C25.147 17.6739 24.8807 17.784 24.5003 17.784H23.2837V17.2333H24.5002C24.6144 17.2333 24.6906 17.2333 24.7666 17.1598C24.8045 17.123 24.8426 17.0497 24.8426 16.9762C24.8426 16.9026 24.8045 16.8296 24.7666 16.7928C24.7285 16.7561 24.6525 16.7193 24.5384 16.7193C23.9302 16.6826 23.2075 16.7193 23.2075 15.9117C23.2075 15.5627 23.4142 15.2475 23.9242 15.1539C23.9852 15.1458 24.0496 15.1405 24.1202 15.1405H25.3751V15.7646H24.5384H24.2343H24.1962C24.0821 15.7646 24.0061 15.7646 23.9302 15.8013C23.8919 15.8381 23.8538 15.9116 23.8538 15.985C23.8538 16.0952 23.8919 16.1319 24.0061 16.1684C24.0821 16.2052 24.1582 16.2052 24.2343 16.2052H24.2721H24.5764C24.7426 16.2052 24.8683 16.225 24.9833 16.264C25.0886 16.3008 25.4373 16.4514 25.5153 16.8445C25.5221 16.8857 25.527 16.9287 25.527 16.9762C25.527 17.1966 25.451 17.3801 25.2989 17.5268Z" fill="#F9F9F9"/>
</svg>
