<svg width="28" height="28" viewBox="0 0 28 28" fill="none" xmlns="http://www.w3.org/2000/svg">
<g clip-path="url(#clip0_165_31)">
<path d="M26.0698 5.04883H1.93184C0.998672 5.04883 0.242188 5.77923 0.242188 6.68022V21.5958C0.242188 22.4968 0.998672 23.2272 1.93184 23.2272H26.0698C27.0029 23.2272 27.7594 22.4968 27.7594 21.5958V6.68022C27.7594 5.77923 27.0029 5.04883 26.0698 5.04883Z" fill="#F9F9F9" stroke="#F3F3F3" stroke-width="13.7931"/>
<path fill-rule="evenodd" clip-rule="evenodd" d="M10.2577 19.2142V19.9025V20.5909H9.94524V20.4238C9.84613 20.5477 9.69575 20.6255 9.49135 20.6255C9.08834 20.6255 8.77242 20.3232 8.77242 19.9025C8.77242 19.4822 9.08834 19.1795 9.49135 19.1795C9.69575 19.1795 9.84613 19.2573 9.94524 19.3813V19.2142H10.2577ZM9.53021 19.4618C9.25972 19.4618 9.09418 19.6606 9.09418 19.9025C9.09418 20.1445 9.25972 20.3433 9.53021 20.3433C9.78868 20.3433 9.96315 20.1531 9.96315 19.9025C9.96315 19.652 9.78868 19.4618 9.53021 19.4618ZM20.8175 19.9025C20.8175 19.6606 20.9831 19.4618 21.2536 19.4618C21.5124 19.4618 21.6865 19.652 21.6865 19.9025C21.6865 20.1531 21.5124 20.3433 21.2536 20.3433C20.9831 20.3433 20.8175 20.1445 20.8175 19.9025ZM21.9815 18.6613V19.9025V20.5909H21.6686V20.4238C21.5695 20.5477 21.4191 20.6255 21.2147 20.6255C20.8117 20.6255 20.4958 20.3232 20.4958 19.9025C20.4958 19.4822 20.8117 19.1795 21.2147 19.1795C21.4191 19.1795 21.5695 19.2573 21.6686 19.3813V18.6613H21.9815ZM14.1366 19.4476C14.338 19.4476 14.4673 19.5685 14.5004 19.7816H13.7546C13.788 19.5828 13.9139 19.4476 14.1366 19.4476ZM13.427 19.9025C13.427 19.4733 13.7216 19.1795 14.1428 19.1795C14.5455 19.1795 14.8222 19.4733 14.8253 19.9025C14.8253 19.9427 14.8222 19.9804 14.8191 20.0176H13.7519C13.797 20.2655 13.9804 20.3549 14.1817 20.3549C14.3259 20.3549 14.4794 20.3028 14.5999 20.2108L14.753 20.4327C14.5785 20.5738 14.3803 20.6255 14.1638 20.6255C13.7336 20.6255 13.427 20.3404 13.427 19.9025ZM17.9161 19.9025C17.9161 19.6606 18.0816 19.4618 18.3521 19.4618C18.6105 19.4618 18.785 19.652 18.785 19.9025C18.785 20.1531 18.6105 20.3433 18.3521 20.3433C18.0816 20.3433 17.9161 20.1445 17.9161 19.9025ZM19.0796 19.2142V19.9025V20.5909H18.7671V20.4238C18.6677 20.5477 18.5176 20.6255 18.3132 20.6255C17.9102 20.6255 17.5943 20.3232 17.5943 19.9025C17.5943 19.4822 17.9102 19.1795 18.3132 19.1795C18.5176 19.1795 18.6677 19.2573 18.7671 19.3813V19.2142H19.0796ZM16.1512 19.9025C16.1512 20.3202 16.4548 20.6255 16.918 20.6255C17.1345 20.6255 17.2787 20.5794 17.4349 20.4613L17.2849 20.2194C17.1675 20.3002 17.0443 20.3433 16.9087 20.3433C16.6592 20.3404 16.4758 20.1676 16.4758 19.9025C16.4758 19.6375 16.6592 19.4647 16.9087 19.4618C17.0443 19.4618 17.1675 19.5049 17.2849 19.5857L17.4349 19.3437C17.2787 19.2257 17.1345 19.1795 16.918 19.1795C16.4548 19.1795 16.1512 19.4848 16.1512 19.9025ZM19.8013 19.3813C19.8825 19.2603 19.9998 19.1795 20.1802 19.1795C20.2435 19.1795 20.3337 19.1911 20.4029 19.2171L20.3065 19.4993C20.2404 19.4733 20.1743 19.4647 20.111 19.4647C19.9066 19.4647 19.8044 19.5913 19.8044 19.8191V20.5909H19.4915V19.2142H19.8013V19.3813ZM11.8033 19.3236C11.6529 19.2287 11.4457 19.1795 11.2172 19.1795C10.8531 19.1795 10.6187 19.3467 10.6187 19.6203C10.6187 19.8449 10.7933 19.9833 11.1147 20.0265L11.2623 20.0466C11.4337 20.0697 11.5146 20.1129 11.5146 20.1907C11.5146 20.2972 11.4003 20.3578 11.1869 20.3578C10.9705 20.3578 10.8143 20.2916 10.7089 20.2137L10.5616 20.4468C10.733 20.5678 10.9495 20.6255 11.1839 20.6255C11.5989 20.6255 11.8394 20.4383 11.8394 20.1762C11.8394 19.9342 11.6501 19.8076 11.3373 19.7644L11.19 19.7439C11.0548 19.7268 10.9464 19.7011 10.9464 19.6088C10.9464 19.5079 11.0486 19.4476 11.22 19.4476C11.4034 19.4476 11.581 19.5138 11.6681 19.5656L11.8033 19.3236ZM15.4568 19.3813C15.5377 19.2603 15.655 19.1795 15.8353 19.1795C15.8987 19.1795 15.9888 19.1911 16.058 19.2171L15.9616 19.4993C15.8956 19.4733 15.8295 19.4647 15.7661 19.4647C15.5617 19.4647 15.4595 19.5913 15.4595 19.8191V20.5909H15.1471V19.2142H15.4568V19.3813ZM13.1685 19.2142H12.6575V18.7964H12.3416V19.2142H12.0501V19.4878H12.3416V20.1159C12.3416 20.4353 12.4709 20.6255 12.8406 20.6255C12.9761 20.6255 13.1324 20.5853 13.2315 20.519L13.1413 20.2625C13.0481 20.3143 12.9459 20.3404 12.8647 20.3404C12.7084 20.3404 12.6575 20.248 12.6575 20.1099V19.4878H13.1685V19.2142ZM8.49605 19.7268V20.5909H8.18013V19.8247C8.18013 19.5913 8.07793 19.4618 7.86455 19.4618C7.65701 19.4618 7.51281 19.5887 7.51281 19.8277V20.5909H7.19689V19.8247C7.19689 19.5913 7.09194 19.4618 6.8844 19.4618C6.67069 19.4618 6.53238 19.5887 6.53238 19.8277V20.5909H6.2168V19.2142H6.52962V19.3839C6.64698 19.2227 6.79702 19.1795 6.95049 19.1795C7.17005 19.1795 7.32632 19.2719 7.42543 19.4245C7.5579 19.2313 7.74719 19.1765 7.93064 19.1795C8.27958 19.1825 8.49605 19.4014 8.49605 19.7268Z" fill="#231F20"/>
<path d="M16.4354 16.8747H11.6992V8.72095H16.4354V16.8747Z" fill="#FF5F00"/>
<path d="M12.0008 12.7981C12.0008 11.144 12.8091 9.67065 14.068 8.72116C13.1475 8.02684 11.9856 7.61243 10.7229 7.61243C7.73371 7.61243 5.31055 9.93409 5.31055 12.7981C5.31055 15.662 7.73371 17.9837 10.7229 17.9837C11.9856 17.9837 13.1475 17.5693 14.068 16.875C12.8091 15.9255 12.0008 14.4521 12.0008 12.7981Z" fill="#EB001B"/>
<path d="M22.8262 12.7981C22.8262 15.662 20.4031 17.9837 17.4138 17.9837C16.1511 17.9837 14.9893 17.5693 14.0684 16.875C15.3276 15.9255 16.136 14.4521 16.136 12.7981C16.136 11.144 15.3276 9.67065 14.0684 8.72116C14.9893 8.02684 16.1511 7.61243 17.4138 7.61243C20.4031 7.61243 22.8262 9.93409 22.8262 12.7981Z" fill="#F79E1B"/>
</g>
<defs>
<clipPath id="clip0_165_31">
<rect width="28" height="27.0345" fill="white" transform="translate(0 0.620728)"/>
</clipPath>
</defs>
</svg>
