<svg width="28" height="28" viewBox="0 0 28 28" fill="none" xmlns="http://www.w3.org/2000/svg">
<g clip-path="url(#clip0_165_37)">
<path d="M26.0698 5.04883H1.93184C0.998672 5.04883 0.242188 5.77923 0.242188 6.68022V21.5958C0.242188 22.4968 0.998672 23.2272 1.93184 23.2272H26.0698C27.0029 23.2272 27.7594 22.4968 27.7594 21.5958V6.68022C27.7594 5.77923 27.0029 5.04883 26.0698 5.04883Z" fill="#F9F9F9" stroke="#F3F3F3" stroke-width="13.7931"/>
<path d="M12.4325 17.6027H10.5684L11.7344 11.0768H13.5984L12.4325 17.6027Z" fill="#15195A"/>
<path d="M19.1896 11.2363C18.8219 11.1043 18.2388 10.9585 17.5177 10.9585C15.6767 10.9585 14.3804 11.8471 14.3724 13.1175C14.3571 14.0548 15.3005 14.5754 16.0062 14.8879C16.7274 15.2073 16.9726 15.4157 16.9726 15.7004C16.9652 16.1376 16.3898 16.3391 15.8531 16.3391C15.1088 16.3391 14.71 16.2352 14.104 15.992L13.8585 15.8877L13.5977 17.3526C14.0349 17.5329 14.8404 17.6929 15.6767 17.7C17.6327 17.7 18.9062 16.8251 18.9212 15.4713C18.9287 14.7284 18.4305 14.1591 17.3565 13.694C16.7044 13.3954 16.3052 13.1941 16.3052 12.8886C16.3128 12.6108 16.6429 12.3263 17.3789 12.3263C17.9849 12.3124 18.4302 12.4443 18.7675 12.5762L18.9361 12.6455L19.1896 11.2363Z" fill="#15195A"/>
<path fill-rule="evenodd" clip-rule="evenodd" d="M22.5265 11.0768H23.9684L25.4724 17.6026H23.7463C23.7463 17.6026 23.5774 16.8528 23.5239 16.6237H21.1304C21.0612 16.7971 20.7392 17.6026 20.7392 17.6026H18.7832L21.5522 11.6182C21.744 11.1947 22.0818 11.0768 22.5265 11.0768ZM22.4116 13.4649C22.4116 13.4649 21.8209 14.9159 21.6673 15.2908H23.2169C23.1402 14.9645 22.7872 13.4024 22.7872 13.4024L22.6569 12.8401C22.602 12.9849 22.5227 13.184 22.4692 13.3183C22.4329 13.4093 22.4085 13.4705 22.4116 13.4649Z" fill="#15195A"/>
<path fill-rule="evenodd" clip-rule="evenodd" d="M2.48967 11.0768H5.4889C5.89548 11.0905 6.22535 11.2086 6.33267 11.6253L6.98449 14.6238L6.98468 14.6243L7.18416 15.5268L9.00981 11.0768H10.981L8.05085 17.5958H6.07956L4.41803 11.9253C3.84476 11.6219 3.19049 11.3779 2.45898 11.2086L2.48967 11.0768Z" fill="#15195A"/>
</g>
<defs>
<clipPath id="clip0_165_37">
<rect width="28" height="27.0345" fill="white" transform="translate(0 0.620728)"/>
</clipPath>
</defs>
</svg>
